<?xml version="1.0" encoding="utf-8"?>
<!-- Generator: Adobe Illustrator 24.1.2, SVG Export Plug-In . SVG Version: 6.00 Build 0)  -->
<svg version="1.1" id="Layer_1" xmlns="http://www.w3.org/2000/svg" xmlns:xlink="http://www.w3.org/1999/xlink" x="0px" y="0px"
	 viewBox="0 0 24 20" style="enable-background:new 0 0 24 20;" xml:space="preserve">
<style type="text/css">
	.st0{fill:#FFFFFF;filter:url(#Adobe_OpacityMaskFilter);}
	.st1{mask:url(#mask0_1_);}
	.st2{fill:#0880AE;}
</style>
<g>
	<path d="M18.6,0.6c0.3-0.3,0.8-0.3,1.1,0c0.3,0.3,0.3,0.8,0,1.1l-9.6,9.6c-0.3,0.3-0.8,0.3-1.1,0l-4-4C4.7,7.1,4.7,6.5,5,6.2
		c0.3-0.3,0.8-0.3,1.1,0l3.4,3.4L18.6,0.6z"/>
</g>
<defs>
	<filter id="Adobe_OpacityMaskFilter" filterUnits="userSpaceOnUse" x="0" y="-6" width="24" height="24">
		<feColorMatrix  type="matrix" values="1 0 0 0 0  0 1 0 0 0  0 0 1 0 0  0 0 0 1 0"/>
	</filter>
</defs>
<mask maskUnits="userSpaceOnUse" x="0" y="-6" width="24" height="24" id="mask0_1_">
	<path class="st0" d="M18.6,0.6c0.3-0.3,0.8-0.3,1.1,0c0.3,0.3,0.3,0.8,0,1.1l-9.6,9.6c-0.3,0.3-0.8,0.3-1.1,0l-4-4
		C4.7,7.1,4.7,6.5,5,6.2c0.3-0.3,0.8-0.3,1.1,0l3.4,3.4L18.6,0.6z"/>
</mask>
<g class="st1">
	<g>
		<rect y="-6" class="st2" width="24" height="24"/>
	</g>
</g>
</svg>
